<?xml version="1.0" standalone="no"?>
<!DOCTYPE svg PUBLIC "-//W3C//DTD SVG 20010904//EN"
 "http://www.w3.org/TR/2001/REC-SVG-20010904/DTD/svg10.dtd">
<svg version="1.0" xmlns="http://www.w3.org/2000/svg"
 width="80.000000pt" height="80.000000pt" viewBox="0 0 80.000000 80.000000"
 preserveAspectRatio="xMidYMid meet">
<metadata>
Created by potrace 1.14, written by Peter Selinger 2001-2017
</metadata>
<g transform="translate(0.000000,80.000000) scale(0.100000,-0.100000)"
fill="#000000" stroke="none">
<path d="M756 775 c4 -8 11 -15 16 -15 6 0 5 6 -2 15 -7 8 -14 15 -16 15 -2 0
-1 -7 2 -15z"/>
<path d="M352 760 c2 -8 -3 -14 -9 -12 -7 1 -13 -4 -13 -11 0 -19 30 -17 31 2
0 12 3 11 9 -4 7 -16 9 -17 9 -3 1 9 4 18 9 21 4 2 2 3 -4 1 -6 -1 -17 3 -23
9 -10 9 -12 9 -9 -3z"/>
<path d="M306 741 c-4 -7 -5 -15 -2 -18 9 -9 19 4 14 18 -4 11 -6 11 -12 0z"/>
<path d="M265 724 c-19 -19 -15 -27 9 -18 9 3 16 12 16 20 0 18 -5 18 -25 -2z"/>
<path d="M504 729 c-4 -7 -3 -9 4 -5 5 3 13 0 15 -6 4 -9 6 -10 6 -1 1 17 -16
25 -25 12z"/>
<path d="M554 725 c-9 -22 1 -29 15 -11 8 10 9 16 1 21 -5 3 -13 -1 -16 -10z"/>
<path d="M261 524 c-57 -15 -121 -49 -121 -65 0 -4 16 2 35 16 55 37 149 61
175 45 13 -8 11 -16 -9 -55 -25 -48 -154 -175 -177 -175 -7 0 -15 -3 -17 -7
-3 -5 25 -8 61 -9 65 0 66 0 25 9 l-42 10 43 33 c51 39 136 148 136 175 0 17
-28 40 -47 38 -4 0 -32 -7 -62 -15z"/>
<path d="M472 408 c-7 -7 -12 -21 -12 -32 0 -15 3 -17 12 -8 9 9 15 9 27 -1
14 -10 14 -10 3 5 -8 9 -11 22 -8 27 9 15 -9 22 -22 9z"/>
<path d="M601 391 c-20 -28 -13 -36 16 -18 6 4 13 2 15 -4 4 -12 38 -1 38 13
0 6 -6 6 -14 -1 -15 -13 -32 1 -21 18 3 5 1 12 -4 15 -5 4 -19 -7 -30 -23z"/>
<path d="M355 400 c-9 -15 4 -50 20 -50 8 0 17 5 21 11 4 8 9 7 15 -2 7 -12
10 -12 21 0 10 10 10 12 1 7 -9 -5 -13 1 -13 21 l0 28 -13 -25 c-16 -32 -43
-33 -40 -2 3 24 -2 28 -12 12z"/>
<path d="M527 391 c-3 -12 -2 -23 3 -26 11 -7 20 19 10 34 -5 9 -9 7 -13 -8z"/>
<path d="M557 380 c3 -11 7 -20 9 -20 2 0 4 9 4 20 0 11 -4 20 -9 20 -5 0 -7
-9 -4 -20z"/>
<path d="M690 243 c0 -6 8 -17 18 -24 16 -13 16 -13 2 6 -8 11 -16 22 -17 24
-2 2 -3 0 -3 -6z"/>
<path d="M680 213 c0 -15 19 -37 26 -31 3 4 -1 14 -10 23 -9 9 -16 13 -16 8z"/>
<path d="M109 201 c7 -5 11 -14 7 -20 -5 -7 -1 -9 8 -5 20 8 20 20 0 28 -23 9
-31 7 -15 -3z"/>
<path d="M632 174 c-8 -8 -11 -23 -7 -32 6 -16 7 -16 19 0 7 10 17 14 22 10 4
-4 3 0 -4 9 -6 9 -9 19 -5 22 3 4 2 7 -3 7 -5 -1 -15 -8 -22 -16z m11 -19 c-3
-9 -8 -14 -10 -11 -3 3 -2 9 2 15 9 16 15 13 8 -4z"/>
<path d="M140 170 c-9 -6 -10 -10 -3 -10 6 0 15 5 18 10 8 12 4 12 -15 0z"/>
<path d="M160 150 c-8 -15 -8 -18 3 -14 8 3 14 11 14 19 0 20 -4 19 -17 -5z"/>
<path d="M186 135 c-16 -12 -17 -15 -4 -15 9 0 18 7 22 15 7 18 6 18 -18 0z"/>
<path d="M593 142 c-8 -5 -9 -13 -3 -22 6 -10 13 -11 19 -5 13 13 -1 36 -16
27z"/>
<path d="M221 121 c-8 -5 -9 -11 -3 -15 5 -3 12 1 16 9 6 17 6 18 -13 6z"/>
<path d="M557 111 c-3 -13 -1 -18 9 -14 7 2 10 11 7 19 -7 19 -10 18 -16 -5z"/>
<path d="M247 106 c-9 -23 21 -40 69 -40 24 0 44 -3 44 -6 0 -4 7 -7 15 -7 8
0 12 4 9 9 -3 4 0 8 5 8 6 0 11 4 11 8 0 5 -7 9 -15 9 -8 0 -12 -4 -9 -9 3 -4
0 -8 -5 -8 -6 0 -11 5 -11 11 0 6 -5 7 -12 2 -24 -14 -40 -12 -34 5 5 13 2 12
-9 -2 -14 -19 -15 -19 -15 -2 0 15 -3 16 -14 7 -9 -7 -17 -8 -20 -2 -3 5 -1
11 6 13 8 3 9 6 1 11 -6 4 -13 0 -16 -7z"/>
<path d="M485 90 c-4 -6 -11 -8 -16 -5 -5 4 -9 0 -9 -8 0 -8 9 -13 23 -11 12
1 25 3 30 3 4 1 7 9 7 18 0 15 -2 14 -15 -3 -13 -16 -14 -16 -9 -1 7 18 -1 23
-11 7z"/>
<path d="M425 79 c-11 -16 -1 -19 13 -3 7 8 8 14 3 14 -5 0 -13 -5 -16 -11z"/>
</g>
</svg>
