<svg width="24" height="25" viewBox="0 0 24 25" fill="none" xmlns="http://www.w3.org/2000/svg">
<g clip-path="url(#clip0_296_81)">
<path d="M20.8401 5.27394C20.3293 4.76294 19.7229 4.35758 19.0554 4.08102C18.388 3.80446 17.6725 3.66211 16.9501 3.66211C16.2276 3.66211 15.5122 3.80446 14.8447 4.08102C14.1772 4.35758 13.5708 4.76294 13.0601 5.27394L12.0001 6.33394L10.9401 5.27394C9.90837 4.24224 8.50909 3.66264 7.05006 3.66264C5.59102 3.66264 4.19175 4.24224 3.16006 5.27394C2.12837 6.30563 1.54877 7.7049 1.54877 9.16393C1.54877 10.623 2.12837 12.0222 3.16006 13.0539L4.22006 14.1139L12.0001 21.8939L19.7801 14.1139L20.8401 13.0539C21.3511 12.5432 21.7564 11.9367 22.033 11.2693C22.3095 10.6018 22.4519 9.88642 22.4519 9.16393C22.4519 8.44145 22.3095 7.72604 22.033 7.05858C21.7564 6.39112 21.3511 5.78469 20.8401 5.27394V5.27394Z" stroke="#49562A" stroke-width="2" stroke-linecap="round" stroke-linejoin="round"/>
</g>
<defs>
<clipPath id="clip0_296_81">
<rect width="24" height="24" fill="white" transform="translate(6.10352e-05 0.664062)"/>
</clipPath>
</defs>
</svg>
