<svg width="24" height="24" viewBox="0 0 24 24" fill="none" xmlns="http://www.w3.org/2000/svg">
<g clip-path="url(#clip0_280_24)">
<path d="M22.317 5.67409H17.1889V0.788868C17.1889 0.571733 17.0127 0.395508 16.7955 0.395508H7.20383C6.9867 0.395508 6.81047 0.571733 6.81047 0.788868V5.67409H1.68295C1.4784 5.67409 1.30595 5.83395 1.29084 6.03786L0.00125259 23.1827C-0.0069293 23.2916 0.0308333 23.3998 0.10447 23.4785C0.178107 23.5591 0.283213 23.605 0.393354 23.605H23.6073C23.7174 23.605 23.8225 23.5591 23.8955 23.4791C23.9698 23.3998 24.0075 23.2916 23.9994 23.1821L22.7098 6.03786C22.6947 5.83395 22.5222 5.67409 22.317 5.67409ZM16.7955 8.16704C16.9944 8.16704 17.1562 8.32816 17.1562 8.52579C17.1562 8.72404 16.9944 8.88579 16.7955 8.88579C16.5966 8.88579 16.4349 8.72404 16.4349 8.52579C16.4349 8.32816 16.5966 8.16704 16.7955 8.16704ZM7.59719 1.18286H16.4022V5.67471H7.59719V1.18286ZM7.20383 8.16704C7.40272 8.16704 7.56447 8.32816 7.56447 8.52579C7.56447 8.72404 7.40272 8.88579 7.20383 8.88579C7.00495 8.88579 6.8432 8.72404 6.8432 8.52579C6.8432 8.32816 7.00495 8.16704 7.20383 8.16704ZM0.816924 22.8189L2.04735 6.46143H6.81047V7.45459C6.3718 7.61571 6.05648 8.03362 6.05648 8.52642C6.05648 9.15894 6.57131 9.67314 7.20383 9.67314C7.83636 9.67314 8.35119 9.15894 8.35119 8.52642C8.35119 8.03362 8.03587 7.61571 7.59719 7.45459V6.46143H16.4022V7.45459C15.9635 7.61571 15.6482 8.03362 15.6482 8.52642C15.6482 9.15894 16.163 9.67314 16.7955 9.67314C17.428 9.67314 17.9429 9.15894 17.9429 8.52642C17.9429 8.03362 17.6276 7.61571 17.1889 7.45459V6.46143H21.9526L23.1831 22.8189H0.816924Z" fill="#1D2017" stroke="#1D2017"/>
</g>
<defs>
<clipPath id="clip0_280_24">
<rect width="24" height="24" fill="white"/>
</clipPath>
</defs>
</svg>
